<?xml version="1.0" encoding="utf-8"?>
<!-- Generator: Adobe Illustrator 22.1.0, SVG Export Plug-In . SVG Version: 6.00 Build 0)  -->
<svg version="1.1" id="Layer_1" focusable="false" xmlns="http://www.w3.org/2000/svg" xmlns:xlink="http://www.w3.org/1999/xlink"
	 x="0px" y="0px" viewBox="0 0 640 512" style="enable-background:new 0 0 640 512;" xml:space="preserve">
<style type="text/css">
	.st0{opacity:0.5413;}
</style>
<path class="st0" d="M635.7,167.2L556.1,31.7c-8.8-15-28.3-20.1-43.5-11.5l-69,39.1L503.3,161c2.2,3.8,0.9,8.5-2.9,10.7l-13.8,7.8
	c-3.8,2.2-8.7,0.9-10.9-2.9L416,75l-55.2,31.3l27.9,47.4c2.2,3.8,0.9,8.5-2.9,10.7l-13.8,7.8c-3.8,2.2-8.7,0.9-10.9-2.9L333.2,122
	L278,153.3L337.8,255c2.2,3.7,0.9,8.5-2.9,10.7l-13.8,7.8c-3.8,2.2-8.7,0.9-10.9-2.9l-59.7-101.7l-55.2,31.3l27.9,47.4
	c2.2,3.8,0.9,8.5-2.9,10.7l-13.8,7.8c-3.8,2.2-8.7,0.9-10.9-2.9l-27.9-47.5L112.5,247l59.7,101.7c2.2,3.7,0.9,8.5-2.9,10.7
	l-13.8,7.8c-3.8,2.2-8.7,0.9-10.9-2.9L84.9,262.9l-69,39.1c-15.2,8.7-20.5,27.8-11.7,42.8l79.6,135.6c8.8,15,28.3,20.1,43.5,11.5
	L624.1,210C639.3,201.4,644.5,182.2,635.7,167.2L635.7,167.2z"/>
</svg>
